<svg width="30" height="30" viewBox="0 0 30 30" fill="none" xmlns="http://www.w3.org/2000/svg">
<path d="M3.75012 12.1716C3.74702 12.3617 3.80176 12.5482 3.90707 12.7064C4.01239 12.8646 4.1633 12.9871 4.33981 13.0576L13.3407 16.6585L16.9417 25.6604C17.0112 25.8345 17.1314 25.9837 17.2867 26.0889C17.4419 26.194 17.6251 26.2501 17.8126 26.2501H17.8276C18.0175 26.2471 18.202 26.1865 18.3567 26.0763C18.5114 25.9662 18.629 25.8116 18.6939 25.6332L26.1939 5.00818C26.2553 4.8404 26.2674 4.65856 26.229 4.48408C26.1905 4.30961 26.1029 4.14977 25.9766 4.02338C25.8503 3.89699 25.6906 3.80933 25.5161 3.7707C25.3417 3.73208 25.1598 3.74411 24.992 3.80537L4.367 11.3054C4.18847 11.3705 4.0339 11.4882 3.92375 11.6431C3.8136 11.7979 3.75306 11.9826 3.75012 12.1726V12.1716Z" fill="#111111"/>
</svg>
