<svg width="30" height="30" viewBox="0 0 30 30" fill="none" xmlns="http://www.w3.org/2000/svg">
<path d="M0 15C0 23.2843 6.71573 30 15 30C23.2843 30 30 23.2843 30 15C30 6.71573 23.2843 0 15 0C6.71573 0 0 6.71573 0 15Z" fill="#F8F3D4"/>
<path fill-rule="evenodd" clip-rule="evenodd" d="M19.441 6.80906C19.237 6.65134 19.0559 6.53472 18.8977 6.45919C18.5097 6.23282 18.1546 6.10287 17.8319 6.06844C17.5821 6.02756 17.2832 6.07555 16.9343 6.21261C16.5988 6.36344 16.3652 6.46274 16.2332 6.51072C16.099 6.57087 15.9839 6.61268 15.8882 6.63624C15.8238 6.65207 15.757 6.66489 15.6907 6.66489V6.66489C15.6641 6.66489 15.6249 6.66156 15.5724 6.65489C15.3885 6.63424 15.0758 6.57603 14.635 6.48007C14.3851 6.4252 14.1873 6.37722 14.0426 6.33612L13.3324 6.16129C13.1612 6.12686 13.0359 6.10642 12.9576 6.09954C12.9397 6.09954 12.9252 6.10025 12.9141 6.10163C12.8962 6.10386 12.8789 6.11216 12.8614 6.11672V6.11672C12.8531 6.11888 12.8446 6.11998 12.836 6.11998H12.8289C12.8254 6.11998 12.8229 6.12184 12.8212 6.12553C12.8173 6.134 12.8136 6.14307 12.8054 6.1473V6.1473C12.8011 6.14947 12.7976 6.15283 12.7952 6.15698L12.7692 6.20195C12.7304 6.27747 12.7033 6.40432 12.6905 6.5827C12.6771 6.74708 12.6739 6.90481 12.6809 7.05564C12.694 7.41218 12.7758 7.72074 12.9274 7.98131C13.0785 8.24188 13.3253 8.47158 13.6672 8.6704C13.9375 8.82145 14.2954 8.97207 14.7435 9.12312L15.3458 9.34926C15.6023 9.45212 15.8124 9.5583 15.977 9.66826C16.2138 9.82576 16.4008 10.0077 16.5391 10.2134C16.632 10.3505 16.6977 10.4773 16.7373 10.5939C16.7766 10.7381 16.7994 10.8818 16.8064 11.026C16.8122 11.2932 16.7601 11.5709 16.6474 11.8588C16.5491 12.1058 16.4276 12.3389 16.2831 12.5583C16.0459 12.9353 15.7236 13.3365 15.316 13.7617C14.9867 14.0978 14.6154 14.4577 14.2008 14.8415C14.1283 14.9102 13.7465 15.2427 13.0555 15.8392C12.8061 16.0584 12.6249 16.2232 12.513 16.3328L12.0295 16.8677C11.6674 17.2931 11.398 17.663 11.2206 17.9784C11.1087 18.1637 11.0166 18.3589 10.9437 18.5646C10.8717 18.791 10.8284 18.9898 10.8154 19.1611V19.1611C10.8094 19.2157 10.8077 19.2706 10.8103 19.3254L10.8156 19.4385C10.8286 19.5481 10.8452 19.6438 10.8651 19.7262C10.9043 19.8431 10.9733 20.0417 11.072 20.3231C11.1908 20.6588 11.2568 20.8645 11.2694 20.9402C11.3489 21.2075 11.3948 21.4269 11.4075 21.5982C11.4472 21.8794 11.4046 22.1229 11.2792 22.3286C11.2206 22.4312 11.1447 22.5274 11.0524 22.6165C10.9542 22.6918 10.8484 22.7505 10.737 22.7916V22.7916C10.6689 22.8151 10.6543 22.9086 10.72 22.9381C10.7419 22.9479 10.764 22.9573 10.7864 22.9662C10.99 23.0624 11.217 23.1512 11.4674 23.2336C11.6181 23.2818 11.723 23.3125 11.7829 23.326C11.842 23.3467 11.934 23.3742 12.059 23.4085C12.2759 23.4564 12.4107 23.4909 12.4631 23.5115V23.5115C12.4948 23.5222 12.5226 23.4944 12.5254 23.461C12.527 23.4416 12.5293 23.4207 12.5322 23.3982C12.5522 23.2336 12.6083 23.0381 12.6999 22.812C12.8248 22.517 12.9868 22.2569 13.1838 22.0303C13.3353 21.8794 13.4869 21.7628 13.6376 21.6804C13.8478 21.564 14.0656 21.516 14.2892 21.5367C14.5194 21.5571 14.7305 21.6429 14.9212 21.7937C15.0719 21.9101 15.2039 22.0576 15.316 22.236C15.4605 22.4759 15.5688 22.7638 15.6415 23.1001C15.6477 23.1274 15.717 23.4838 15.8485 24.1693V24.1693C15.8676 24.275 15.7864 24.375 15.679 24.375C15.451 24.375 15.2212 24.375 14.9897 24.375C14.3909 24.375 13.8128 24.375 13.2533 24.375C12.1146 24.3683 11.0627 24.3546 10.0951 24.3339C9.49019 24.3201 8.91445 24.303 8.36813 24.2824C6.53923 24.2208 5.625 24.1453 5.625 24.056C5.625 23.96 6.53923 23.881 8.36813 23.8194C8.91445 23.8059 9.49019 23.7885 10.0951 23.7681C10.2252 23.7681 10.3566 23.7676 10.4893 23.7667C10.6009 23.7658 10.6318 23.5767 10.5298 23.5315V23.5315C10.0623 23.312 9.65432 23.0139 9.30581 22.637V22.637C9.20394 22.5177 9.08875 22.4097 8.97726 22.2993C8.88885 22.2118 8.81425 22.1152 8.75352 22.0094C8.70065 21.9341 8.66143 21.8517 8.63521 21.7628C8.60857 21.66 8.58896 21.5776 8.57574 21.516C8.53652 21.3445 8.5329 21.1835 8.56615 21.0326C8.58576 20.8614 8.64779 20.7172 8.75352 20.6003C8.84603 20.4911 8.96369 20.4086 9.10906 20.3538C9.20733 20.3125 9.32265 20.2849 9.45417 20.2716C9.5729 20.2716 9.68139 20.2851 9.77966 20.3125C9.98059 20.3558 10.1283 20.4459 10.2234 20.5833C10.2449 20.6145 10.2581 20.6312 10.2738 20.6656V20.6656C10.2922 20.706 10.3021 20.7674 10.3068 20.8115C10.3083 20.8257 10.3103 20.8411 10.3126 20.8578C10.3126 20.9056 10.3091 20.9402 10.3025 20.9607L10.29 21.0212C10.2856 21.0426 10.2791 21.0634 10.2708 21.0835L10.2674 21.0915C10.2581 21.1141 10.2457 21.1353 10.2308 21.1546V21.1546C10.2194 21.1694 10.2099 21.1855 10.2 21.2013C10.188 21.2205 10.173 21.2397 10.1546 21.259C10.1544 21.2592 10.1542 21.2594 10.154 21.2596C10.1158 21.2994 10.0846 21.2793 10.1056 21.2283V21.2283L10.1345 21.1432C10.1479 21.1039 10.158 21.0636 10.1646 21.0226V21.0226C10.1842 20.8991 10.1646 20.8032 10.1056 20.7347C10.0331 20.6388 9.90819 20.5772 9.73042 20.5497C9.54561 20.5155 9.37487 20.5428 9.21756 20.6321C9.12548 20.6732 9.04895 20.7316 8.99076 20.8069C8.93086 20.8894 8.89825 20.9818 8.89164 21.0846C8.87203 21.2012 8.88205 21.3212 8.92127 21.4447C8.92745 21.4654 8.94792 21.5234 8.98074 21.6195C9.00696 21.6882 9.03659 21.7464 9.06899 21.7944C9.20712 22.007 9.42837 22.1749 9.73063 22.2982C10.0529 22.4284 10.336 22.4421 10.579 22.3395V22.3395C10.6968 22.2902 10.8005 22.2052 10.8604 22.0925C10.8622 22.089 10.8639 22.0857 10.8655 22.0825C10.9245 21.9659 10.9441 21.8219 10.9245 21.6504C10.9045 21.4996 10.8621 21.3179 10.7958 21.1053C10.7696 21.0366 10.6971 20.8414 10.5788 20.519C10.4739 20.2378 10.398 20.0288 10.352 19.8917C10.3123 19.7409 10.2865 19.6174 10.2733 19.5214V19.5214C10.2601 19.3851 10.2566 19.2468 10.2633 19.11V19.11C10.2834 18.877 10.3358 18.6299 10.4211 18.3696C10.4935 18.1432 10.595 17.9102 10.7267 17.6703C10.9311 17.3069 11.2208 16.9023 11.5955 16.4569L12.1084 15.8809C12.2267 15.7712 12.4149 15.6032 12.6709 15.3769C13.3025 14.8215 13.6847 14.4856 13.8167 14.369C14.2634 13.9576 14.6218 13.6115 14.8912 13.3303C15.2996 12.8982 15.6027 12.5315 15.7997 12.2298C16.0957 11.7704 16.2405 11.3761 16.2334 11.0471C16.2334 10.8618 16.181 10.6939 16.0757 10.5431C16.0369 10.4813 15.9804 10.4129 15.9084 10.3374C15.8093 10.2485 15.7306 10.1867 15.6711 10.1523C15.5134 10.0426 15.3397 9.94661 15.1483 9.86419L14.5663 9.64827C14.0788 9.46322 13.6975 9.28818 13.4219 9.12379C13.0201 8.8701 12.7246 8.57199 12.533 8.229C12.3623 7.9 12.2704 7.51592 12.257 7.07719C12.257 6.87815 12.2704 6.69999 12.2971 6.54227C12.3228 6.30213 12.3691 6.1242 12.4345 6.00757L12.5104 5.90711C12.5322 5.87827 12.558 5.85265 12.5869 5.83103L12.5975 5.82314C12.6074 5.81578 12.6178 5.80929 12.6287 5.80351C12.6312 5.80218 12.6336 5.80088 12.636 5.79961C12.6671 5.78274 12.7 5.76672 12.7345 5.75865V5.75865C12.758 5.75315 12.7799 5.74165 12.8031 5.73536C12.8167 5.73169 12.8321 5.72989 12.8496 5.72989C12.8621 5.72989 12.9054 5.72989 12.9775 5.72989C13.0761 5.74367 13.2211 5.77432 13.4117 5.82253L13.536 5.86197C13.9199 5.98377 14.3207 6.11949 14.704 6.24326V6.24326C15.1211 6.3781 15.4207 6.48009 15.6017 6.54909C15.6379 6.56288 15.6785 6.55374 15.7099 6.53116V6.53116C15.8885 6.43542 16.0258 6.35634 16.1245 6.2948C16.4671 6.08221 16.6911 5.94848 16.796 5.89361C16.9601 5.8112 17.1187 5.74589 17.2698 5.69813C17.4672 5.64326 17.6646 5.61927 17.8617 5.62615C18.2501 5.64681 18.6707 5.76677 19.1249 5.98625C19.6182 6.23993 20.0266 6.5416 20.3484 6.89103C20.6904 7.26134 20.9604 7.76872 21.1582 8.41315C21.3094 8.92075 21.4081 9.5172 21.4539 10.203L21.4643 10.4498C21.4573 10.6075 21.4539 10.6895 21.4539 10.6963C21.4343 10.8472 21.4019 11.0082 21.3556 11.1797C21.2631 11.4949 21.1284 11.7795 20.951 12.0332C20.7532 12.3284 20.5269 12.5441 20.2704 12.6812C20.1118 12.7565 19.9573 12.8045 19.8062 12.8251C19.648 12.8527 19.4903 12.8458 19.3323 12.8045C19.0821 12.7429 18.8357 12.599 18.592 12.3726C18.3819 12.1669 18.2269 11.9474 18.1282 11.7146C18.0295 11.461 18.0033 11.1968 18.0495 10.9227C18.0687 10.7241 18.1416 10.5113 18.2661 10.2849C18.3386 10.1341 18.4343 9.96615 18.5526 9.78089C18.6779 9.59584 18.7666 9.46211 18.819 9.37992C18.9902 9.09202 19.0921 8.86566 19.1251 8.70105C19.1518 8.55022 19.1413 8.40627 19.0955 8.26921C19.0755 8.20056 19.0627 8.15591 19.0559 8.13548C19.0497 8.11482 19.0497 8.10104 19.0559 8.09416C19.0684 8.08038 19.0855 8.08394 19.1053 8.10438L19.204 8.20701C19.3155 8.34451 19.3652 8.51912 19.3521 8.73171C19.3521 8.95807 19.2692 9.22864 19.1053 9.54408C19.0721 9.61295 18.9934 9.76023 18.8685 9.98659C18.7698 10.1856 18.6941 10.3429 18.6413 10.4595C18.556 10.6652 18.5068 10.8401 18.4935 10.984C18.4801 11.1759 18.5097 11.3474 18.5822 11.4985C18.6613 11.6698 18.7828 11.8239 18.9474 11.9612C19.119 12.1256 19.2867 12.2251 19.4506 12.2593C19.635 12.2935 19.8194 12.2593 20.004 12.1565C20.1617 12.0603 20.3192 11.9061 20.4774 11.6938C20.6085 11.4881 20.7106 11.2584 20.7831 11.0047C20.8227 10.8743 20.8455 10.7474 20.8526 10.6239L20.8617 10.2332C20.8225 9.60251 20.7338 9.05381 20.5953 8.58776C20.4312 8.0324 20.2139 7.597 19.9441 7.28156C19.7991 7.11762 19.6318 6.9599 19.441 6.80906ZM20.319 14.5225C20.1809 14.0152 20.0822 13.6109 20.0234 13.309V13.309C19.962 12.9831 20.1168 12.9448 20.2526 13.2473C20.3686 13.5058 20.5223 13.8828 20.7136 14.3786C20.7468 14.4677 20.7961 14.6014 20.8613 14.7798C20.9208 14.9442 20.967 15.0917 20.9999 15.2218L21.138 15.6846C21.197 15.9109 21.2305 16.0995 21.2367 16.2501C21.2497 16.4629 21.2367 16.6686 21.197 16.8672C21.1578 17.0523 21.0883 17.2511 20.9901 17.4637C20.9238 17.5801 20.8289 17.7554 20.7031 17.9884L20.4271 18.5024C20.2097 18.8659 20.062 19.1984 19.9833 19.5003C19.9108 19.7815 19.881 20.1105 19.8946 20.4875C19.9076 20.6041 19.9204 20.7754 19.9339 21.0018C19.9437 21.0981 19.9545 21.1816 19.9661 21.2521C19.9851 21.3673 20.0116 21.4827 20.062 21.588V21.588C20.0816 21.6224 20.1144 21.6735 20.1611 21.7424L20.189 21.7804C20.3212 21.9604 20.4694 22.1284 20.6445 22.2669V22.2669C20.7081 22.318 20.7608 22.3599 20.8027 22.3926C20.8732 22.4475 20.9449 22.5021 21.0027 22.5702C21.0291 22.6014 21.0527 22.6326 21.0734 22.6639C21.1057 22.7127 21.1201 22.7387 21.1464 22.7909V22.7909C21.165 22.828 21.1912 22.8944 21.2003 22.9349L21.2016 22.9406C21.2116 22.9851 21.2166 23.0305 21.2166 23.076C21.2166 23.0773 21.2166 23.0785 21.2166 23.0797C21.222 23.2016 21.2258 23.3133 21.228 23.4148C21.2327 23.6336 21.4025 23.8199 21.6214 23.8199V23.8199C23.4569 23.8814 24.375 23.9605 24.375 24.0564C24.375 24.1455 23.4569 24.2211 21.6214 24.2828V24.2828C21.1689 24.2968 20.8177 23.915 20.7977 23.4627L20.7827 23.1206C20.7827 22.956 20.7298 22.8395 20.6249 22.7707C20.5266 22.6956 20.4339 22.6303 20.3484 22.5754C20.2702 22.5139 20.1873 22.4415 20.1016 22.3595L19.7962 22.0403C19.7633 21.9992 19.7137 21.9305 19.648 21.8348C19.5951 21.7317 19.5589 21.6498 19.5397 21.588C19.4935 21.4578 19.4545 21.2794 19.4206 21.0531L19.3524 20.539C19.3061 20.0934 19.3291 19.6956 19.4206 19.3459C19.5001 18.9756 19.6646 18.5917 19.9147 18.1941L20.2007 17.6694C20.3519 17.4088 20.441 17.2478 20.4668 17.186C20.6249 16.8637 20.7008 16.5622 20.694 16.281C20.694 16.1646 20.6707 16.0135 20.6249 15.8285L20.5266 15.3658C20.5004 15.2425 20.4642 15.095 20.4179 14.9235C20.3583 14.6974 20.3256 14.5636 20.319 14.5225ZM18.1975 20.9193C18.145 20.8714 18.0856 20.8407 18.0201 20.8269C17.9472 20.8132 17.8752 20.8234 17.8027 20.8578C17.7179 20.8909 17.6455 20.9285 17.5864 20.9705C17.5586 20.9903 17.5312 21.0107 17.5021 21.0284V21.0284C17.4526 21.0585 17.4072 21.0949 17.3669 21.1366L17.3384 21.1661C17.2464 21.2828 17.1677 21.4578 17.1021 21.6908C17.0558 21.8621 17.013 22.0576 16.9733 22.2769C16.9475 22.407 16.9175 22.75 16.8851 23.3054V23.3054C16.8582 23.5346 17.0382 23.7287 17.2689 23.7312C17.7286 23.7362 18.1748 23.7425 18.6075 23.75C18.8245 23.7539 18.9917 23.5589 18.9469 23.3465V23.3465C18.8879 22.9902 18.8421 22.6987 18.8094 22.4723C18.7165 22.0132 18.6146 21.6531 18.5034 21.3925C18.4981 21.3828 18.4925 21.3723 18.4866 21.3612C18.4036 21.2052 18.3201 21.0466 18.1975 20.9193V20.9193ZM18.5922 20.4668C18.7634 20.6383 18.9015 20.8747 19.0064 21.1766C19.1317 21.5329 19.2042 21.9137 19.2238 22.3182C19.2434 22.7158 19.2635 23.031 19.2833 23.2643V23.2643C19.3154 23.8557 18.8438 24.3516 18.2515 24.3568C17.9933 24.359 17.73 24.3608 17.4615 24.3621C16.8723 24.3649 16.3359 23.8781 16.421 23.2952V23.2952C16.4344 23.1992 16.4442 22.9662 16.4511 22.5959C16.4636 22.2324 16.5065 21.8828 16.5794 21.5467C16.6448 21.2383 16.7467 20.9844 16.8855 20.7858L17.0432 20.611C17.0886 20.5697 17.1515 20.525 17.2302 20.4773C17.3425 20.3949 17.4742 20.3231 17.6256 20.2611C17.7963 20.2065 17.9641 20.1927 18.1284 20.22C18.2928 20.2543 18.4473 20.3367 18.5922 20.4668ZM15.2269 23.2334C15.1154 22.9591 14.9933 22.7363 14.8622 22.565C14.6644 22.3046 14.4608 22.1671 14.2502 22.1536C14.0262 22.1398 13.799 22.2393 13.5692 22.4519C13.4176 22.589 13.2494 22.7842 13.0655 23.0379C12.981 23.1611 12.8729 23.3757 12.7421 23.682C12.741 23.6846 12.7404 23.6877 12.7403 23.6905V23.6905C12.7394 23.7093 12.7538 23.7359 12.7727 23.7352C12.9277 23.7297 13.088 23.727 13.2533 23.727C13.8128 23.7203 14.3911 23.7166 14.9897 23.7166V23.7166C15.205 23.7166 15.3503 23.4966 15.2591 23.3016C15.2482 23.2783 15.2375 23.2555 15.2269 23.2334Z" fill="#111111"/>
</svg>
